# xmcd
#
# Track frame offsets:
#	150
#	19103
#	37779
#	52898
#	72292
#	87453
#	103823
#	118946
#	133858
#	153190
#	166755
#	179870
#	197003
#
# Disc length: 2824 seconds
#
# Revision: 0
# Processed by: cddbd v1.4PL0 Copyright (c) Steve Scherf et al.
# Submitted via: audiograbber 1.81.03
#
DISCID=af0b060d
DTITLE=Noa - now
DYEAR=2002
DGENRE=Ballad
TTITLE0=hawk and sparrow
TTITLE1=my other wing
TTITLE2=eye in the sky
TTITLE3=we
TTITLE4=motor lullabies
TTITLE5=nothing
TTITLE6=now
TTITLE7=now forget
TTITLE8=warry doll
TTITLE9=today
TTITLE10=Epilogue we can work
TTITLE11=it out
TTITLE12=dance of hope
EXTD=
EXTT0=
EXTT1=
EXTT2=
EXTT3=
EXTT4=
EXTT5=
EXTT6=
EXTT7=
EXTT8=
EXTT9=
EXTT10=
EXTT11=
EXTT12=
PLAYORDER=
